<?xml version="1.0" encoding="UTF-8" standalone="no"?>
<!-- Created with Inkscape (http://www.inkscape.org/) -->

<svg
   xmlns:dc="http://purl.org/dc/elements/1.1/"
   xmlns:cc="http://creativecommons.org/ns#"
   xmlns:rdf="http://www.w3.org/1999/02/22-rdf-syntax-ns#"
   xmlns:svg="http://www.w3.org/2000/svg"
   xmlns="http://www.w3.org/2000/svg"
   xmlns:xlink="http://www.w3.org/1999/xlink"
   xmlns:sodipodi="http://sodipodi.sourceforge.net/DTD/sodipodi-0.dtd"
   xmlns:inkscape="http://www.inkscape.org/namespaces/inkscape"
   version="1.1"
   width="500"
   height="513.79987"
   viewBox="0 0 499.99999 513.79985"
   id="Layer_1"
   xml:space="preserve"
   inkscape:version="0.47 r22583"
   sodipodi:docname="Bahamas-Crown.svg"><metadata
   id="metadata122"><rdf:RDF><cc:Work
       rdf:about=""><dc:format>image/svg+xml</dc:format><dc:type
         rdf:resource="http://purl.org/dc/dcmitype/StillImage" /></cc:Work></rdf:RDF></metadata><sodipodi:namedview
   pagecolor="#ffffff"
   bordercolor="#666666"
   borderopacity="1"
   objecttolerance="10"
   gridtolerance="10"
   guidetolerance="10"
   inkscape:pageopacity="0"
   inkscape:pageshadow="2"
   inkscape:window-width="1324"
   inkscape:window-height="744"
   id="namedview120"
   showgrid="false"
   inkscape:zoom="0.61647601"
   inkscape:cx="-103.29038"
   inkscape:cy="233.27103"
   inkscape:window-x="-8"
   inkscape:window-y="0"
   inkscape:window-maximized="1"
   inkscape:current-layer="Layer_1" /><defs
   id="defs74" />


<path
   style="color:#000000;fill:#e20909;fill-opacity:1;stroke:#000000;stroke-width:2.76450998000000014;marker:none;visibility:visible;display:inline;overflow:visible;enable-background:accumulate;fill-rule:nonzero;stroke-linecap:butt;stroke-linejoin:miter;stroke-miterlimit:4;stroke-opacity:1;stroke-dasharray:none;stroke-dashoffset:0"
   id="path4475"
   d="M 244.71466,390.12278 53.624897,409.35889 35.387792,314.37414 54.121311,230.07322 c 0,0 24.435045,-0.40721 39.910588,0 15.475541,0.40721 37.467041,10.18128 42.354051,1.62901 4.88701,-8.55227 -16.29006,-9.36677 -10.18123,-16.29004 6.10873,-6.92326 22.39879,2.03626 32.98733,-13.03202 10.58844,-15.06828 13.84651,-21.17704 27.28571,-23.62054 13.4393,-2.44352 57.17957,1.94406 64.34573,0.61086 27.85742,-5.18287 45.61202,-7.94144 58.64411,-0.20365 17.99926,10.68696 18.32621,28.50755 30.13648,33.80181 11.81035,5.29426 41.94683,10.99578 64.34563,13.03203 22.3988,2.03626 48.87009,16.69728 48.87009,16.69728 l 17.51179,54.97886 -11.40296,48.0556 -13.4393,63.53119 -183.26288,-19.54804" /><g
   id="g4723"
   transform="matrix(9.2150339,0,0,9.2150339,3227.4196,-562.90881)"><path
     style="color:#000000;fill:#f8c400;fill-opacity:1;fill-rule:nonzero;stroke:#000000;stroke-width:0.29999998;stroke-linecap:butt;stroke-linejoin:miter;stroke-miterlimit:4;stroke-opacity:1;stroke-dasharray:none;stroke-dashoffset:0;marker:none;visibility:visible;display:inline;overflow:visible;enable-background:accumulate"
     id="path4207"
     transform="translate(0,-2.5999895e-6)"
     d="m -346.8125,95.002015 c -0.70008,-12.762773 10.45348,-19.722789 19.5625,-19.875 l 0,2.0625 c -10.21846,0.01936 -17.75756,9.182749 -18.09153,17.8125 l -1.47097,0 z" /><g
     id="g4713"><path
       style="color:#000000;fill:#fcfcfc;fill-opacity:1;stroke:#000000;stroke-width:0.29999998;stroke-linecap:butt;stroke-linejoin:miter;stroke-miterlimit:4;stroke-opacity:1;stroke-dasharray:none;stroke-dashoffset:0;marker:none;visibility:visible;display:inline;overflow:visible;enable-background:accumulate"
       id="path4414"
       transform="translate(-10.761281,15.711025)"
       d="m -335.96412,75.490662 a 1.6793786,1.6793786 0 1 1 -3.35875,0 1.6793786,1.6793786 0 1 1 3.35875,0 z" /><use
       xlink:href="#path4414"
       height="421.75201"
       width="424.26999"
       y="0"
       x="0"
       style="fill:#ffffff;fill-opacity:1;stroke:#000000;stroke-width:0.29999998;stroke-miterlimit:4;stroke-dasharray:none"
       id="use4436"
       transform="translate(0.70822663,-3.7797217)" /><use
       xlink:href="#path4414"
       height="421.75201"
       width="424.26999"
       y="0"
       x="0"
       style="stroke:#000000;stroke-width:0.29999998;stroke-miterlimit:4;stroke-dasharray:none"
       id="use4438"
       transform="translate(2.5640087,-7.4036439)" /><use
       xlink:href="#path4414"
       height="421.75201"
       width="424.26999"
       y="0"
       x="0"
       style="stroke:#000000;stroke-width:0.29999998;stroke-miterlimit:4;stroke-dasharray:none"
       id="use4440"
       transform="translate(5.0160386,-10.672892)" /><use
       xlink:href="#path4414"
       height="421.75201"
       width="424.26999"
       y="0"
       x="0"
       style="stroke:#000000;stroke-width:0.29999998;stroke-miterlimit:4;stroke-dasharray:none"
       id="use4442"
       transform="translate(7.8354398,-13.3125)" /><use
       xlink:href="#path4414"
       height="421.75201"
       width="424.26999"
       y="0"
       x="0"
       style="stroke:#000000;stroke-width:0.29999998;stroke-miterlimit:4;stroke-dasharray:none"
       id="use4444"
       transform="translate(11.14794,-15.32397)" /><use
       xlink:href="#path4414"
       height="421.75201"
       width="424.26999"
       y="0"
       x="0"
       style="stroke:#000000;stroke-width:0.29999998;stroke-miterlimit:4;stroke-dasharray:none"
       id="use4446"
       transform="translate(14.69897,-16.75)" /><use
       xlink:href="#path4414"
       height="421.75201"
       width="424.26999"
       y="0"
       x="0"
       style="stroke:#000000;stroke-width:0.29999998;stroke-miterlimit:4;stroke-dasharray:none"
       id="use4448"
       transform="translate(18.3125,-17.625)" /></g></g><use
   xlink:href="#g4723"
   height="421.75201"
   width="424.26999"
   y="0"
   x="0"
   id="use4735"
   transform="matrix(-1,0,0,1,499.99998,0)" /><path
   style="color:#000000;fill:#f8c400;fill-opacity:1;fill-rule:nonzero;stroke:#000000;stroke-width:2.76450992;stroke-linecap:butt;stroke-linejoin:miter;stroke-miterlimit:4;stroke-opacity:1;stroke-dasharray:none;stroke-dashoffset:0;marker:none;visibility:visible;display:inline;overflow:visible;enable-background:accumulate"
   id="path4257"
   d="m 249.20625,79.858345 c -22.82039,0 -44.2481,13.826053 -45.46965,37.436075 -1.21104,23.40652 16.57324,88.09915 15.55037,160.11121 l 59.83856,0 C 278.10266,205.39357 295.88694,139.54906 294.6759,116.14254 293.45436,92.532518 272.02664,79.858345 249.20625,79.858345 z" /><path
   style="color:#000000;fill:none;stroke:#000000;stroke-width:2.76450992;stroke-linecap:butt;stroke-linejoin:miter;stroke-miterlimit:4;stroke-opacity:1;stroke-dasharray:none;stroke-dashoffset:0;marker:none;visibility:visible;display:inline;overflow:visible;enable-background:accumulate"
   id="path4641"
   d="m 204.88848,116.14254 45.6757,42.9075 44.60288,-41.89962" /><path
   style="color:#000000;fill:none;stroke:#000000;stroke-width:2.76450992;stroke-linecap:butt;stroke-linejoin:miter;stroke-miterlimit:4;stroke-opacity:1;stroke-dasharray:none;stroke-dashoffset:0;marker:none;visibility:visible;display:inline;overflow:visible;enable-background:accumulate"
   id="path4260"
   d="m 244.76147,69.912541 c -0.77867,21.32533 -10.61885,36.772499 -39.7238,39.723819 l -1.58904,5.93024 91.72129,0 -1.58904,-5.93024 c -29.10495,-2.95132 -38.94541,-18.398489 -39.7238,-39.723819" /><path
   style="color:#000000;fill:#f8c400;fill-opacity:1;stroke:#000000;stroke-width:2.76450992;stroke-linecap:butt;stroke-linejoin:miter;stroke-miterlimit:4;stroke-opacity:1;stroke-dasharray:none;stroke-dashoffset:0;marker:none;visibility:visible;display:inline;overflow:visible;enable-background:accumulate"
   id="path4263"
   d="m 273.24966,277.11766 c -1.28882,-82.26267 10.33125,-116.92517 10.07894,-133.90596 -0.14468,-9.758 -17.35606,-8.75036 -31.38871,-28.79698 m -26.77704,162.70294 c 1.28881,-82.26267 -10.33126,-116.92517 -10.07895,-133.90596 0.14468,-9.758 17.35597,-8.75036 31.38871,-28.79698" /><g
   id="g4656"
   transform="matrix(9.2150339,0,0,9.2150339,3227.4196,-562.90881)"><path
     style="color:#000000;fill:#fcfcfc;fill-opacity:1;fill-rule:nonzero;stroke:#000000;stroke-width:0.32393289;stroke-linecap:butt;stroke-linejoin:miter;stroke-miterlimit:4;stroke-opacity:1;stroke-dasharray:none;stroke-dashoffset:0;marker:none;visibility:visible;display:inline;overflow:visible;enable-background:accumulate"
     id="path4463"
     transform="matrix(0.92611763,0,0,0.92611763,-10.493116,19.413454)"
     d="m -335.96412,75.490662 a 1.6793786,1.6793786 0 1 1 -3.35875,0 1.6793786,1.6793786 0 1 1 3.35875,0 z" /><use
     xlink:href="#path4463"
     height="421.75201"
     width="424.26999"
     y="0"
     x="0"
     style="stroke:#000000;stroke-width:0.29999998;stroke-miterlimit:4;stroke-dasharray:none"
     id="use4465"
     transform="translate(0,-3.6553298)" /><use
     xlink:href="#use4465"
     height="421.75201"
     width="424.26999"
     y="0"
     x="0"
     style="stroke:#000000;stroke-width:0.29999998;stroke-miterlimit:4;stroke-dasharray:none"
     id="use4467"
     transform="translate(0,-3.6357234)" /><use
     xlink:href="#use4467"
     height="421.75201"
     width="424.26999"
     y="0"
     x="0"
     style="stroke:#000000;stroke-width:0.29999998;stroke-miterlimit:4;stroke-dasharray:none"
     id="use4469"
     transform="translate(0,-3.5366117)" /><use
     xlink:href="#use4469"
     height="421.75201"
     width="424.26999"
     y="0"
     x="0"
     style="stroke:#000000;stroke-width:0.29999998;stroke-miterlimit:4;stroke-dasharray:none"
     id="use4471"
     transform="translate(0,-3.4482234)" /></g><g
   id="g4636"
   transform="matrix(9.2150339,0,0,9.2150339,3227.3285,-562.90881)"><use
     xlink:href="#path4225"
     height="421.75201"
     width="424.26999"
     y="0"
     x="0"
     id="use4620"
     transform="matrix(0,1,-1,0,-257.76266,388.57662)" /><path
     style="color:#000000;fill:#f8c400;fill-opacity:1;fill-rule:nonzero;stroke:#000000;stroke-width:0.29999998;stroke-linecap:butt;stroke-linejoin:miter;stroke-miterlimit:4;stroke-opacity:1;stroke-dasharray:none;stroke-dashoffset:0;marker:none;visibility:visible;display:inline;overflow:visible;enable-background:accumulate"
     id="path4225"
     d="m -327.31726,63.786764 c 0,0 1.98838,0.877327 4.14764,0.877327 2.15926,0 4.14764,-0.877327 4.14764,-0.877327 0.039,1.080121 0.0223,2.160302 0,3.240456 0,0 -1.98838,-0.877328 -4.14764,-0.877328 -2.15926,0 -4.14764,0.877328 -4.14764,0.877328 -0.0391,-1.080122 -0.0223,-2.160303 0,-3.240456 z" /><path
     style="color:#000000;fill:#f8c400;fill-opacity:1;fill-rule:nonzero;stroke:#000000;stroke-width:0.29999998;stroke-linecap:butt;stroke-linejoin:miter;stroke-miterlimit:4;stroke-opacity:1;stroke-dasharray:none;stroke-dashoffset:0;marker:none;visibility:visible;display:inline;overflow:visible;enable-background:accumulate"
     id="path4215"
     transform="translate(0.29910588,-0.25127356)"
     d="m -322.53125,65.658264 a 0.9375,0.9375 0 1 1 -1.875,0 0.9375,0.9375 0 1 1 1.875,0 z" /></g><g
   id="g4698"
   transform="matrix(9.2150339,0,0,9.2150339,3227.4196,-562.90881)"><g
     style="fill:#f8c400;fill-opacity:1;stroke:#000000;stroke-width:0.29999998;stroke-miterlimit:4;stroke-dasharray:none"
     id="g4247"><path
       style="color:#000000;fill:#f8c400;fill-opacity:1;stroke:#000000;stroke-width:0.29999998;stroke-linecap:butt;stroke-linejoin:miter;stroke-miterlimit:4;stroke-opacity:1;stroke-dasharray:none;stroke-dashoffset:0;marker:none;visibility:visible;display:inline;overflow:visible;enable-background:accumulate"
       id="path4193"
       transform="translate(0,-2.5999895e-6)"
       d="m -340.57813,103.65826 c -2.21875,-0.5625 -4.73437,-2.09375 -4.76562,-3.906245 -0.0312,-1.8125 0.75,-5.1875 0.75,-5.1875 l -2.96875,0.01563 c 0.75774,2.228764 1.0912,3.765841 1.25,5.171875 0.11555,1.02308 0.49905,1.97964 0.71875,5.15625" /><path
       style="color:#000000;fill:#f8c400;fill-opacity:1;stroke:#000000;stroke-width:0.29999998;stroke-linecap:butt;stroke-linejoin:miter;stroke-miterlimit:4;stroke-opacity:1;stroke-dasharray:none;stroke-dashoffset:0;marker:none;visibility:visible;display:inline;overflow:visible;enable-background:accumulate"
       id="path4195"
       transform="translate(0,-2.5999895e-6)"
       d="m -345.875,100.17389 c 1.66252,-0.15815 3.20656,0.18724 4.70313,0.73437 l -10e-6,-3.437495 c -1.40858,0.541749 -3.18324,1.301162 -4.51562,1.5" /><path
       style="color:#000000;fill:#f8c400;fill-opacity:1;stroke:#000000;stroke-width:0.29999998;stroke-linecap:butt;stroke-linejoin:miter;stroke-miterlimit:4;stroke-opacity:1;stroke-dasharray:none;stroke-dashoffset:0;marker:none;visibility:visible;display:inline;overflow:visible;enable-background:accumulate"
       id="path4191"
       transform="translate(0,-2.5999895e-6)"
       d="m -345.34375,99.642639 a 0.859375,1.421875 0 1 1 -1.71875,0 0.859375,1.421875 0 1 1 1.71875,0 z" /><path
       style="color:#000000;fill:#e20909;fill-opacity:1;stroke:#000000;stroke-width:0.29999998000000000;stroke-linecap:butt;stroke-linejoin:miter;stroke-miterlimit:4;stroke-opacity:1;stroke-dasharray:none;stroke-dashoffset:0;marker:none;visibility:visible;display:inline;overflow:visible;enable-background:accumulate"
       id="path4189"
       transform="translate(0,-2.5999895e-6)"
       d="m -346,99.595764 a 0.609375,0.96875 0 1 1 -1.21875,0 0.609375,0.96875 0 1 1 1.21875,0 z" /></g><path
     style="color:#000000;fill:#f8c400;fill-opacity:1;stroke:#000000;stroke-width:0.29999998;stroke-linecap:butt;stroke-linejoin:miter;stroke-miterlimit:4;stroke-opacity:1;stroke-dasharray:none;stroke-dashoffset:0;marker:none;visibility:visible;display:inline;overflow:visible;enable-background:accumulate"
     id="path4197"
     transform="translate(0,-2.5999895e-6)"
     d="m -339.5625,103.37701 c 3.375,-1.375 3.86408,-1.9594 3.90625,-3.749995 0.0724,-3.074038 -4.18277,-1.890935 -4.6875,0.1875 -0.51562,-4.260417 1.85958,-4.960911 4.26562,-3.40625 -0.93822,-3.999599 -1.12148,-6.870745 0.73438,-8.625 1.99106,1.68268 1.79675,4.605277 1.34375,8.34375 2.87273,-2.558218 5.23468,-0.143818 5.03125,2.28125 0,0 -2.625,-2.03125 -3.875,-0.8125 -2.17034,2.573935 0.18522,3.953365 2.4375,5.187495 l 0,0" /><use
     xlink:href="#path4197"
     height="421.75201"
     width="424.26999"
     y="0"
     x="0"
     style="stroke:#000000;stroke-width:0.29999998;stroke-miterlimit:4;stroke-dasharray:none"
     id="use4245"
     transform="matrix(-1,0,0,1,-646.55892,0)" /><g
     id="g4692"><path
       style="color:#000000;fill:#f8c400;fill-opacity:1;fill-rule:nonzero;stroke:#000000;stroke-width:0.29999998;stroke-linecap:butt;stroke-linejoin:miter;stroke-miterlimit:4;stroke-opacity:1;stroke-dasharray:none;stroke-dashoffset:0;marker:none;visibility:visible;display:inline;overflow:visible;enable-background:accumulate"
       id="path4199"
       transform="translate(0,-2.5999895e-6)"
       d="m -329.71875,102.72076 c 3.74353,-1.43426 5.37729,-2.59231 5.34375,-5.249995 -0.051,-4.040806 -3.22162,-7.391291 1.15625,-10.03125 4.40663,2.42283 0.97938,5.254437 1,9.90625 0.0148,3.349195 2.28581,4.468045 5.5625,5.531245" /><path
       style="color:#000000;fill:#f8c400;fill-opacity:1;fill-rule:nonzero;stroke:#000000;stroke-width:0.29999998;stroke-linecap:butt;stroke-linejoin:miter;stroke-miterlimit:4;stroke-opacity:1;stroke-dasharray:none;stroke-dashoffset:0;marker:none;visibility:visible;display:inline;overflow:visible;enable-background:accumulate"
       id="path4230"
       d="m -328.54341,94.994816 c 0,0 2.56763,1.137628 5.35592,1.137628 2.7883,0 5.35593,-1.137628 5.35593,-1.137628 0.0504,1.400585 0.0288,2.801248 0,4.201885 0,0 -2.56763,-1.137629 -5.35593,-1.137629 -2.78829,0 -5.35592,1.137629 -5.35592,1.137629 -0.0505,-1.400585 -0.0288,-2.801248 0,-4.201885 z" /><path
       style="color:#000000;fill:#f8c400;fill-opacity:1;fill-rule:nonzero;stroke:#000000;stroke-width:0.29999998;stroke-linecap:butt;stroke-linejoin:miter;stroke-miterlimit:4;stroke-opacity:1;stroke-dasharray:none;stroke-dashoffset:0;marker:none;visibility:visible;display:inline;overflow:visible;enable-background:accumulate"
       id="path4203"
       transform="translate(0.3125,-2.5999894e-6)"
       d="m -321.90625,97.095764 a 1.59375,1.59375 0 1 1 -3.1875,0 1.59375,1.59375 0 1 1 3.1875,0 z" /><path
       style="color:#000000;fill:#e20909;fill-opacity:1;stroke:#000000;stroke-width:0.47374158999999999;stroke-linecap:butt;stroke-linejoin:miter;stroke-miterlimit:4;stroke-opacity:1;stroke-dasharray:none;stroke-dashoffset:0;marker:none;visibility:visible;display:inline;overflow:visible;enable-background:accumulate"
       id="path4205"
       transform="matrix(0.63325661,0,0,0.63325661,-118.32899,35.609227)"
       d="m -321.90625,97.095764 a 1.59375,1.59375 0 1 1 -3.1875,0 1.59375,1.59375 0 1 1 3.1875,0 z" /></g><use
     xlink:href="#g4247"
     height="421.75201"
     width="424.26999"
     y="0"
     x="0"
     style="stroke:#000000;stroke-width:0.29999998;stroke-miterlimit:4;stroke-dasharray:none"
     id="use4255"
     transform="matrix(-1,0,0,1,-646.45313,0)" /></g><path
   style="color:#000000;fill:#c0a264;fill-opacity:1;stroke:#000000;stroke-width:2.76450992;stroke-linecap:butt;stroke-linejoin:miter;stroke-miterlimit:4;stroke-opacity:1;stroke-dasharray:none;stroke-dashoffset:0;marker:none;visibility:visible;display:inline;overflow:visible;enable-background:accumulate"
   id="path4235"
   d="m 55.14418,494.53485 c 2.879698,-25.34134 -19.438193,-85.74506 -13.822551,-92.72628 5.131852,-6.37993 110.976191,-17.85412 206.019221,-17.85412 95.04294,0 200.88728,11.47419 206.01913,17.85412 5.61564,6.98122 -16.70225,67.38494 -13.82255,92.72628" /><path
   style="color:#000000;fill:#f8c400;fill-opacity:1;stroke:#000000;stroke-width:2.76450992;stroke-linecap:butt;stroke-linejoin:miter;stroke-miterlimit:4;stroke-opacity:1;stroke-dasharray:none;stroke-dashoffset:0;marker:none;visibility:visible;display:inline;overflow:visible;enable-background:accumulate"
   id="path4238"
   d="m 248.08395,446.73186 c -89.2488,0 -178.677846,9.03986 -194.667589,25.34135 L 43.049448,419.6627 c 30.828251,-15.42163 119.603492,-19.58195 205.034502,-19.58195 85.43101,0 174.20626,4.16032 205.03451,19.58195 l -10.36692,52.41051 C 426.7618,455.77172 337.33275,446.73186 248.08395,446.73186 z" /><g
   id="g4737"
   transform="matrix(9.2150339,0,0,9.2150339,3227.4196,-562.90881)"><path
     style="color:#000000;fill:#e20909;fill-opacity:1;stroke:#000000;stroke-width:0.29999998000000000;stroke-linecap:butt;stroke-linejoin:miter;stroke-miterlimit:4;stroke-opacity:1;stroke-dasharray:none;stroke-dashoffset:0;marker:none;visibility:visible;display:inline;overflow:visible;enable-background:accumulate"
     id="path4183"
     transform="translate(0,-2.5999895e-6)"
     d="m -344.17187,111.04889 2.20312,-2.09375 -3.125,-1.67188 c -2.53646,1.58333 -2.25266,3.21898 0.92188,3.76563 z" /><rect
     style="color:#000000;fill:#2b5df2;fill-opacity:1;stroke:#000000;stroke-width:0.30062926000000001;stroke-linecap:butt;stroke-linejoin:miter;stroke-miterlimit:4;stroke-opacity:1;stroke-dasharray:none;stroke-dashoffset:0;marker:none;visibility:visible;display:inline;overflow:visible;enable-background:accumulate"
     id="rect4185"
     transform="matrix(0.99581798,-0.09135945,0,1,0,0)"
     y="75.315941"
     x="-340.86301"
     ry="0.71875"
     rx="1.4257965"
     height="3.21875"
     width="7.9080715" /><rect
     style="color:#000000;fill:#2b5df2;fill-opacity:1;stroke:#000000;stroke-width:0.29999998000000000;stroke-linecap:butt;stroke-linejoin:miter;stroke-miterlimit:4;stroke-opacity:1;stroke-dasharray:none;stroke-dashoffset:0;marker:none;visibility:visible;display:inline;overflow:visible;enable-background:accumulate"
     id="rect4187"
     y="105.59576"
     x="-327.6875"
     ry="0.71875"
     rx="1.4257965"
     height="3.1875"
     width="7.78125" /><use
     xlink:href="#rect4185"
     height="421.75201"
     width="424.26999"
     y="0"
     x="0"
     style="stroke:#000000;stroke-width:0.29999998000000000;stroke-miterlimit:4;stroke-dasharray:none;fill:#2b5df2;fill-opacity:1"
     id="use4241"
     transform="matrix(-1,0,0,1,-647.68752,0)" /><use
     xlink:href="#path4183"
     height="421.75201"
     width="424.26999"
     y="0"
     x="0"
     style="stroke:#000000;stroke-width:0.29999998;stroke-miterlimit:4;stroke-dasharray:none"
     id="use4243"
     transform="matrix(-1,0,0,1,-646.51706,0)" /></g><g
   id="g4744"
   transform="matrix(9.2150339,0,0,9.2150339,3227.4196,-562.90881)"><path
     style="color:#000000;fill:#ffffff;fill-opacity:1;stroke:#000000;stroke-width:0.29999998;stroke-miterlimit:4;stroke-dasharray:none;marker:none;visibility:visible;display:inline;overflow:visible;enable-background:accumulate"
     id="path4232"
     d="m -323.40905,111.42827 c -10.02544,0 -20.48114,0.7683 -21.02845,2.26124 -0.65851,1.79625 -0.56029,2.67178 1.0625,3 0.45703,0.0924 10.02951,-1.9085 19.96595,-1.9085 9.93644,0 19.50892,2.00094 19.96595,1.9085 1.62279,-0.32822 1.72101,-1.20375 1.0625,-3 -0.54731,-1.49294 -11.00301,-2.26124 -21.02845,-2.26124 z" /><path
     style="color:#000000;fill:#000000;stroke:#000000;stroke-width:0.29999998;stroke-linecap:butt;stroke-linejoin:miter;stroke-miterlimit:4;stroke-opacity:1;stroke-dasharray:none;stroke-dashoffset:0;marker:none;visibility:visible;display:inline;overflow:visible;enable-background:accumulate"
     id="path4478"
     d="m -343.43087,114.42796 c 0.21656,0.83581 1.12097,1.16328 1.92855,1.19385 0.80757,0.0306 1.53225,-0.23949 1.40143,-0.67101 -0.198,-0.65315 -1.5963,-0.0123 -2.52204,-0.10188 -0.21683,-0.021 -0.46894,-0.16913 -0.80794,-0.42096 z m 4.13179,-0.95244 c 0.16838,0.84602 1.05195,1.22423 1.85636,1.30029 0.80441,0.0761 1.54326,-0.15309 1.43668,-0.59113 -0.16131,-0.663 -1.59283,-0.10155 -2.51119,-0.24337 -0.2151,-0.0332 -0.45817,-0.19532 -0.78185,-0.46579 z m 4.17515,-0.71924 c 0.12143,0.85399 0.98288,1.28039 1.78238,1.40026 0.79951,0.11987 1.55034,-0.0692 1.46746,-0.51253 -0.12545,-0.671 -1.58582,-0.18764 -2.49497,-0.37964 -0.21295,-0.045 -0.44673,-0.22021 -0.75487,-0.50809 z m 4.20761,-0.49201 c 0.0757,0.85971 0.91374,1.33176 1.70661,1.49375 0.79287,0.16199 1.55351,0.0122 1.49377,-0.43521 -0.0904,-0.67716 -1.57525,-0.27056 -2.47338,-0.5107 -0.21035,-0.0563 -0.4346,-0.24377 -0.727,-0.54784 z m 4.22918,-0.27075 c 0.0312,0.8632 0.84455,1.37834 1.62904,1.58076 0.7845,0.20243 1.55276,0.0911 1.51563,-0.35917 -0.0562,-0.68147 -1.56114,-0.35031 -2.44641,-0.63653 -0.20735,-0.0671 -0.42182,-0.26603 -0.69826,-0.58506 z m 4.23985,-0.0555 c -0.012,0.86445 0.77529,1.42013 1.54968,1.66131 0.77439,0.24117 1.54809,0.16744 1.53302,-0.28443 -0.0228,-0.68393 -1.54347,-0.4269 -2.41407,-0.75714 -0.20391,-0.0774 -0.40836,-0.28698 -0.66863,-0.61974 z m 4.23962,0.15384 c -0.054,0.86346 0.70598,1.45713 1.46852,1.73538 0.76255,0.27824 1.53951,0.24131 1.54596,-0.21096 0.01,-0.68454 -1.52226,-0.50033 -2.37637,-0.87254 -0.20004,-0.0872 -0.39421,-0.30661 -0.63811,-0.65188 z m 4.22849,0.35719 c -0.0948,0.86022 0.63662,1.48934 1.38558,1.80296 0.74896,0.31363 1.527,0.31269 1.55443,-0.13877 0.0415,-0.6833 -1.49751,-0.57059 -2.33329,-0.98271 -0.19575,-0.0965 -0.3794,-0.32493 -0.60672,-0.68148 z m 4.20648,0.55456 c -0.13436,0.85474 0.56719,1.51675 1.30083,1.86407 0.73364,0.34732 1.51058,0.38155 1.55844,-0.0679 0.0724,-0.68022 -1.4692,-0.63768 -2.28483,-1.08766 -0.19103,-0.10541 -0.36393,-0.34195 -0.57444,-0.70854 z m 4.17355,0.74595 c -0.17267,0.84702 0.49771,1.53937 1.2143,1.9187 0.71659,0.37934 1.49025,0.44792 1.55799,0.002 0.10254,-0.67529 -1.43734,-0.70162 -2.23101,-1.1874 -0.18588,-0.11379 -0.34777,-0.35765 -0.54128,-0.73306 z" /></g>

</svg>